<?xml version="1.0" encoding="utf-8" standalone="no"?>
<!DOCTYPE svg PUBLIC "-//W3C//DTD SVG 1.1//EN"
  "http://www.w3.org/Graphics/SVG/1.1/DTD/svg11.dtd">
<svg xmlns:xlink="http://www.w3.org/1999/xlink" width="290.4625pt" height="137.798765pt" viewBox="0 0 290.4625 137.798765" xmlns="http://www.w3.org/2000/svg" version="1.1">
 <metadata>
  <rdf:RDF xmlns:dc="http://purl.org/dc/elements/1.1/" xmlns:cc="http://creativecommons.org/ns#" xmlns:rdf="http://www.w3.org/1999/02/22-rdf-syntax-ns#">
   <cc:Work>
    <dc:type rdf:resource="http://purl.org/dc/dcmitype/StillImage"/>
    <dc:date>2026-09-19T17:22:40.327568</dc:date>
    <dc:format>image/svg+xml</dc:format>
    <dc:creator>
     <cc:Agent>
      <dc:title>Matplotlib v3.10.1, https://matplotlib.org/</dc:title>
     </cc:Agent>
    </dc:creator>
   </cc:Work>
  </rdf:RDF>
 </metadata>
 <defs>
  <style type="text/css">*{stroke-linejoin: round; stroke-linecap: butt}</style>
 </defs>
 <g id="figure_1">
  <g id="patch_1">
   <path d="M 0 137.798765 
L 290.4625 137.798765 
L 290.4625 0 
L 0 0 
z
" style="fill: #ffffff"/>
  </g>
  <g id="axes_1">
   <g id="patch_2">
    <path d="M 56.440143 31.367871 
C 48.537282 31.367871 40.925742 34.388498 35.173417 39.807535 
C 29.421092 45.226573 25.952075 52.644501 25.480945 60.533306 
L 56.440143 62.382229 
z
" style="fill: #e6d5b8; stroke: #ffffff; stroke-width: 0.5; stroke-linejoin: miter"/>
   </g>
   <g id="patch_3">
    <path d="M 25.480945 60.533306 
C 25.110612 66.734338 26.611754 72.905898 29.788833 78.244073 
C 32.965911 83.582249 37.674714 87.844732 43.301867 90.476288 
C 48.929021 93.107844 55.219101 93.989023 61.352756 93.005042 
C 67.486411 92.021061 73.185226 89.216584 77.706868 84.956924 
L 56.440143 62.382229 
z
" style="fill: #cdb892; stroke: #ffffff; stroke-width: 0.5; stroke-linejoin: miter"/>
   </g>
   <g id="patch_4">
    <path d="M 77.706868 84.956924 
C 79.50445 83.263493 81.093348 81.3614 82.439771 79.291096 
C 83.786194 77.220793 84.880528 74.99706 85.699501 72.66719 
L 56.440143 62.382229 
z
" style="fill: #a89068; stroke: #ffffff; stroke-width: 0.5; stroke-linejoin: miter"/>
   </g>
   <g id="patch_5">
    <path d="M 85.699501 72.66719 
C 86.929772 69.167231 87.522131 65.474754 87.448371 61.765598 
C 87.37461 58.056442 86.635919 54.390434 85.267475 50.942153 
L 56.440143 62.382229 
z
" style="fill: #7a6b52; stroke: #ffffff; stroke-width: 0.5; stroke-linejoin: miter"/>
   </g>
   <g id="patch_6">
    <path d="M 85.267475 50.942153 
C 84.660572 49.412846 83.932935 47.934256 83.091455 46.520388 
C 82.249974 45.10652 81.297317 43.761852 80.242506 42.499123 
L 56.440143 62.382229 
z
" style="fill: #5a6e6a; stroke: #ffffff; stroke-width: 0.5; stroke-linejoin: miter"/>
   </g>
   <g id="patch_7">
    <path d="M 80.242506 42.499123 
C 77.331797 39.014669 73.691141 36.211498 69.578421 34.288171 
C 65.465701 32.364845 60.980371 31.367871 56.440145 31.367871 
L 56.440143 62.382229 
z
" style="fill: #3e4f55; stroke: #ffffff; stroke-width: 0.5; stroke-linejoin: miter"/>
   </g>
   <g id="matplotlib.axis_1"/>
   <g id="matplotlib.axis_2"/>
   <g id="text_1">
    <text style="font-weight: 700; font-size: 6px; font-family: 'Arial', sans-serif; text-anchor: middle; fill: #333333" x="43.680107" y="50.392726" transform="rotate(-0 43.680107 50.392726)">24%</text>
   </g>
   <g id="text_2">
    <text style="font-weight: 700; font-size: 6px; font-family: 'Arial', sans-serif; text-anchor: middle; fill: #333333" x="48.557178" y="80.793977" transform="rotate(-0 48.557178 80.793977)">38%</text>
   </g>
   <g id="text_3">
    <text style="font-weight: 700; font-size: 6px; font-family: 'Arial', sans-serif; text-anchor: middle; fill: #ffffff" x="75.04508" y="63.567563" transform="rotate(-0 75.04508 63.567563)">11%</text>
   </g>
   <g id="text_4">
    <text style="font-weight: 700; font-size: 6px; font-family: 'Arial', sans-serif; text-anchor: middle; fill: #ffffff" x="64.32311" y="47.081107" transform="rotate(-0 64.32311 47.081107)">14%</text>
   </g>
   <g id="text_5">
    <text style="font-size: 7px; font-family: 'Arial', sans-serif; fill: #c4a35a" transform="translate(41.458502 12.210469)">sustained</text>
    <text style="font-size: 7px; font-family: 'Arial', sans-serif; fill: #c4a35a" transform="translate(48.55694 19.614281)">n=79</text>
   </g>
  </g>
  <g id="axes_2">
   <g id="patch_8">
    <path d="M 149.483219 31.367871 
C 146.612919 31.367871 143.756464 31.766329 140.995736 32.551824 
C 138.235008 33.337319 135.59664 34.502272 133.156262 36.013291 
L 149.483219 62.382229 
z
" style="fill: #e6d5b8; stroke: #ffffff; stroke-width: 0.5; stroke-linejoin: miter"/>
   </g>
   <g id="patch_9">
    <path d="M 133.156262 36.013291 
C 128.66548 38.793865 124.958588 42.676098 122.38838 47.290504 
C 119.818172 51.904911 118.46886 57.100307 118.46886 62.382231 
L 149.483219 62.382229 
z
" style="fill: #cdb892; stroke: #ffffff; stroke-width: 0.5; stroke-linejoin: miter"/>
   </g>
   <g id="patch_10">
    <path d="M 118.46886 62.382231 
C 118.46886 67.906955 119.945076 73.332624 122.744197 78.095763 
C 125.543318 82.858903 129.564971 86.788712 134.391494 89.477068 
L 149.483219 62.382229 
z
" style="fill: #a89068; stroke: #ffffff; stroke-width: 0.5; stroke-linejoin: miter"/>
   </g>
   <g id="patch_11">
    <path d="M 134.391494 89.477068 
C 141.574736 93.478107 150.06222 94.462792 157.970701 92.212634 
C 165.879183 89.962477 172.577018 84.657196 176.578057 77.473954 
L 149.483219 62.382229 
z
" style="fill: #7a6b52; stroke: #ffffff; stroke-width: 0.5; stroke-linejoin: miter"/>
   </g>
   <g id="patch_12">
    <path d="M 176.578057 77.473954 
C 180.338439 70.722775 181.443059 62.804008 179.673775 55.281474 
C 177.904491 47.75894 173.385976 41.162722 167.010561 36.795461 
L 149.483219 62.382229 
z
" style="fill: #5a6e6a; stroke: #ffffff; stroke-width: 0.5; stroke-linejoin: miter"/>
   </g>
   <g id="patch_13">
    <path d="M 167.010561 36.795461 
C 164.444529 35.037689 161.628611 33.675886 158.657454 32.755825 
C 155.686298 31.835764 152.593568 31.367871 149.483217 31.367871 
L 149.483219 62.382229 
z
" style="fill: #3e4f55; stroke: #ffffff; stroke-width: 0.5; stroke-linejoin: miter"/>
   </g>
   <g id="matplotlib.axis_3"/>
   <g id="matplotlib.axis_4"/>
   <g id="text_6">
    <text style="font-weight: 700; font-size: 6px; font-family: 'Arial', sans-serif; text-anchor: middle; fill: #333333" x="144.390729" y="46.039299" transform="rotate(-0 144.390729 46.039299)">9%</text>
   </g>
   <g id="text_7">
    <text style="font-weight: 700; font-size: 6px; font-family: 'Arial', sans-serif; text-anchor: middle; fill: #333333" x="133.226315" y="54.882507" transform="rotate(-0 133.226315 54.882507)">16%</text>
   </g>
   <g id="text_8">
    <text style="font-weight: 700; font-size: 6px; font-family: 'Arial', sans-serif; text-anchor: middle; fill: #333333" x="133.439805" y="73.365662" transform="rotate(-0 133.439805 73.365662)">17%</text>
   </g>
   <g id="text_9">
    <text style="font-weight: 700; font-size: 6px; font-family: 'Arial', sans-serif; text-anchor: middle; fill: #ffffff" x="154.575708" y="81.835785" transform="rotate(-0 154.575708 81.835785)">25%</text>
   </g>
   <g id="text_10">
    <text style="font-weight: 700; font-size: 6px; font-family: 'Arial', sans-serif; text-anchor: middle; fill: #ffffff" x="167.597552" y="59.677089" transform="rotate(-0 167.597552 59.677089)">24%</text>
   </g>
   <g id="text_11">
    <text style="font-weight: 700; font-size: 6px; font-family: 'Arial', sans-serif; text-anchor: middle; fill: #ffffff" x="154.98776" y="46.161699" transform="rotate(-0 154.98776 46.161699)">10%</text>
   </g>
   <g id="text_12">
    <text style="font-size: 7px; font-family: 'Arial', sans-serif; fill: #a9373b" transform="translate(140.537437 12.210469)">motor</text>
    <text style="font-size: 7px; font-family: 'Arial', sans-serif; fill: #a9373b" transform="translate(139.653687 19.614281)">n=136</text>
   </g>
  </g>
  <g id="axes_3">
   <g id="patch_14">
    <path d="M 242.526294 31.367871 
C 238.348406 31.367871 234.213272 32.212065 230.3697 33.849657 
C 226.526129 35.48725 223.052787 37.884726 220.158662 40.897829 
L 242.526294 62.382229 
z
" style="fill: #e6d5b8; stroke: #ffffff; stroke-width: 0.5; stroke-linejoin: miter"/>
   </g>
   <g id="patch_15">
    <path d="M 220.158662 40.897829 
C 219.581701 41.498508 219.029172 42.122185 218.502417 42.767343 
C 217.975662 43.4125 217.47511 44.078615 217.001977 44.764067 
L 242.526294 62.382229 
z
" style="fill: #cdb892; stroke: #ffffff; stroke-width: 0.5; stroke-linejoin: miter"/>
   </g>
   <g id="patch_16">
    <path d="M 217.001977 44.764067 
C 215.105616 47.511419 213.665209 50.547015 212.73644 53.753495 
C 211.807672 56.959975 211.402669 60.295479 211.537088 63.631053 
L 242.526294 62.382229 
z
" style="fill: #7a6b52; stroke: #ffffff; stroke-width: 0.5; stroke-linejoin: miter"/>
   </g>
   <g id="patch_17">
    <path d="M 211.537088 63.631053 
C 211.842144 71.200932 214.910568 78.402787 220.158664 83.866632 
C 225.40676 89.330478 232.479221 92.686402 240.030677 93.296018 
L 242.526294 62.382229 
z
" style="fill: #5a6e6a; stroke: #ffffff; stroke-width: 0.5; stroke-linejoin: miter"/>
   </g>
   <g id="patch_18">
    <path d="M 240.030677 93.296018 
C 244.195018 93.632198 248.384672 93.123482 252.347551 91.800478 
C 256.31043 90.477474 259.965426 88.367261 263.09262 85.596808 
C 266.219814 82.826355 268.755202 79.452366 270.546231 75.67785 
C 272.337261 71.903335 273.347274 67.805547 273.5155 63.631047 
C 273.683726 59.456547 273.006721 55.290774 271.525221 51.384381 
C 270.043721 47.477988 267.788047 43.910926 264.893921 40.897823 
C 261.999795 37.884721 258.526452 35.487246 254.682881 33.849654 
C 250.839309 32.212063 246.704175 31.36787 242.526286 31.367871 
L 242.526294 62.382229 
z
" style="fill: #3e4f55; stroke: #ffffff; stroke-width: 0.5; stroke-linejoin: miter"/>
   </g>
   <g id="matplotlib.axis_5"/>
   <g id="matplotlib.axis_6"/>
   <g id="text_13">
    <text style="font-weight: 700; font-size: 6px; font-family: 'Arial', sans-serif; text-anchor: middle; fill: #333333" x="235.232338" y="46.817999" transform="rotate(-0 235.232338 46.817999)">13%</text>
   </g>
   <g id="text_14">
    <text style="font-weight: 700; font-size: 6px; font-family: 'Arial', sans-serif; text-anchor: middle; fill: #ffffff" x="224.652382" y="58.760301" transform="rotate(-0 224.652382 58.760301)">10%</text>
   </g>
   <g id="text_15">
    <text style="font-weight: 700; font-size: 6px; font-family: 'Arial', sans-serif; text-anchor: middle; fill: #ffffff" x="229.105716" y="76.828184" transform="rotate(-0 229.105716 76.828184)">23%</text>
   </g>
   <g id="text_16">
    <text style="font-weight: 700; font-size: 6px; font-family: 'Arial', sans-serif; text-anchor: middle; fill: #ffffff" x="261.119818" y="64.686832" transform="rotate(-0 261.119818 64.686832)">51%</text>
   </g>
   <g id="text_17">
    <text style="font-size: 7px; font-family: 'Arial', sans-serif; fill: #2369bd" transform="translate(230.271919 12.128437)">sensory</text>
    <text style="font-size: 7px; font-family: 'Arial', sans-serif; fill: #2369bd" transform="translate(234.643091 19.614281)">n=39</text>
   </g>
  </g>
  <g id="legend_1">
   <g id="patch_19">
    <path d="M 10 126.407515 
L 24 126.407515 
L 24 121.507515 
L 10 121.507515 
z
" style="fill: #e6d5b8; stroke: #ffffff; stroke-width: 0.5; stroke-linejoin: miter"/>
   </g>
   <g id="text_18">
    <text style="font-size: 7px; font-family: 'Arial', sans-serif; text-anchor: start" x="29.6" y="126.407515" transform="rotate(-0 29.6 126.407515)">AP</text>
   </g>
   <g id="patch_20">
    <path d="M 52.938438 126.407515 
L 66.938438 126.407515 
L 66.938438 121.507515 
L 52.938438 121.507515 
z
" style="fill: #cdb892; stroke: #ffffff; stroke-width: 0.5; stroke-linejoin: miter"/>
   </g>
   <g id="text_19">
    <text style="font-size: 7px; font-family: 'Arial', sans-serif; text-anchor: start" x="72.538438" y="126.407515" transform="rotate(-0 72.538438 126.407515)">ASG</text>
   </g>
   <g id="patch_21">
    <path d="M 101.321563 126.407515 
L 115.321563 126.407515 
L 115.321563 121.507515 
L 101.321563 121.507515 
z
" style="fill: #a89068; stroke: #ffffff; stroke-width: 0.5; stroke-linejoin: miter"/>
   </g>
   <g id="text_20">
    <text style="font-size: 7px; font-family: 'Arial', sans-serif; text-anchor: start" x="120.921563" y="126.407515" transform="rotate(-0 120.921563 126.407515)">MSG</text>
   </g>
   <g id="patch_22">
    <path d="M 150.86625 126.407515 
L 164.86625 126.407515 
L 164.86625 121.507515 
L 150.86625 121.507515 
z
" style="fill: #7a6b52; stroke: #ffffff; stroke-width: 0.5; stroke-linejoin: miter"/>
   </g>
   <g id="text_21">
    <text style="font-size: 7px; font-family: 'Arial', sans-serif; text-anchor: start" x="170.46625" y="126.407515" transform="rotate(-0 170.46625 126.407515)">PSG</text>
   </g>
   <g id="patch_23">
    <path d="M 199.249375 126.407515 
L 213.249375 126.407515 
L 213.249375 121.507515 
L 199.249375 121.507515 
z
" style="fill: #5a6e6a; stroke: #ffffff; stroke-width: 0.5; stroke-linejoin: miter"/>
   </g>
   <g id="text_22">
    <text style="font-size: 7px; font-family: 'Arial', sans-serif; text-anchor: start" x="218.849375" y="126.407515" transform="rotate(-0 218.849375 126.407515)">ALG</text>
   </g>
   <g id="patch_24">
    <path d="M 246.855938 126.407515 
L 260.855938 126.407515 
L 260.855938 121.507515 
L 246.855938 121.507515 
z
" style="fill: #3e4f55; stroke: #ffffff; stroke-width: 0.5; stroke-linejoin: miter"/>
   </g>
   <g id="text_23">
    <text style="font-size: 7px; font-family: 'Arial', sans-serif; text-anchor: start" x="266.455938" y="126.407515" transform="rotate(-0 266.455938 126.407515)">PLG</text>
   </g>
  </g>
 </g>
</svg>
