<?xml version="1.0" encoding="utf-8" standalone="no"?>
<!DOCTYPE svg PUBLIC "-//W3C//DTD SVG 1.1//EN"
  "http://www.w3.org/Graphics/SVG/1.1/DTD/svg11.dtd">
<svg xmlns:xlink="http://www.w3.org/1999/xlink" width="113.385827pt" height="113.385827pt" viewBox="0 0 113.385827 113.385827" xmlns="http://www.w3.org/2000/svg" version="1.1">
 <metadata>
  <rdf:RDF xmlns:dc="http://purl.org/dc/elements/1.1/" xmlns:cc="http://creativecommons.org/ns#" xmlns:rdf="http://www.w3.org/1999/02/22-rdf-syntax-ns#">
   <cc:Work>
    <dc:type rdf:resource="http://purl.org/dc/dcmitype/StillImage"/>
    <dc:date>2026-09-08T11:15:06.278774</dc:date>
    <dc:format>image/svg+xml</dc:format>
    <dc:creator>
     <cc:Agent>
      <dc:title>Matplotlib v3.10.1, https://matplotlib.org/</dc:title>
     </cc:Agent>
    </dc:creator>
   </cc:Work>
  </rdf:RDF>
 </metadata>
 <defs>
  <style type="text/css">*{stroke-linejoin: round; stroke-linecap: butt}</style>
 </defs>
 <g id="figure_1">
  <g id="patch_1">
   <path d="M 0 113.385827 
L 113.385827 113.385827 
L 113.385827 0 
L 0 0 
z
" style="fill: #ffffff"/>
  </g>
  <g id="axes_1">
   <g id="patch_2">
    <path d="M 36.283465 70.299213 
L 106.582677 70.299213 
L 106.582677 13.606299 
L 36.283465 13.606299 
z
" style="fill: #ffffff"/>
   </g>
   <g id="matplotlib.axis_1">
    <g id="xtick_1">
     <g id="line2d_1">
      <defs>
       <path id="m72efb56152" d="M 0 0 
L 0 2 
" style="stroke: #000000; stroke-width: 0.75"/>
      </defs>
      <g>
       <use xlink:href="#m72efb56152" x="39.478883" y="71.299213" style="stroke: #000000; stroke-width: 0.75"/>
      </g>
     </g>
     <g id="text_1">
      <text style="font-size: 7px; font-family: 'Arial', sans-serif; text-anchor: middle" x="39.478883" y="81.809681" transform="rotate(-0 39.478883 81.809681)">2</text>
     </g>
    </g>
    <g id="xtick_2">
     <g id="line2d_2">
      <g>
       <use xlink:href="#m72efb56152" x="55.455977" y="71.299213" style="stroke: #000000; stroke-width: 0.75"/>
      </g>
     </g>
     <g id="text_2">
      <text style="font-size: 7px; font-family: 'Arial', sans-serif; text-anchor: middle" x="55.455977" y="81.809681" transform="rotate(-0 55.455977 81.809681)">3</text>
     </g>
    </g>
    <g id="xtick_3">
     <g id="line2d_3">
      <g>
       <use xlink:href="#m72efb56152" x="71.433071" y="71.299213" style="stroke: #000000; stroke-width: 0.75"/>
      </g>
     </g>
     <g id="text_3">
      <text style="font-size: 7px; font-family: 'Arial', sans-serif; text-anchor: middle" x="71.433071" y="81.809681" transform="rotate(-0 71.433071 81.809681)">4</text>
     </g>
    </g>
    <g id="xtick_4">
     <g id="line2d_4">
      <g>
       <use xlink:href="#m72efb56152" x="87.410165" y="71.299213" style="stroke: #000000; stroke-width: 0.75"/>
      </g>
     </g>
     <g id="text_4">
      <text style="font-size: 7px; font-family: 'Arial', sans-serif; text-anchor: middle" x="87.410165" y="81.809681" transform="rotate(-0 87.410165 81.809681)">5</text>
     </g>
    </g>
    <g id="xtick_5">
     <g id="line2d_5">
      <g>
       <use xlink:href="#m72efb56152" x="103.387258" y="71.299213" style="stroke: #000000; stroke-width: 0.75"/>
      </g>
     </g>
     <g id="text_5">
      <text style="font-size: 7px; font-family: 'Arial', sans-serif; text-anchor: middle" x="103.387258" y="81.809681" transform="rotate(-0 103.387258 81.809681)">6</text>
     </g>
    </g>
    <g id="text_6">
     <text style="font-size: 7px; font-family: 'Arial', sans-serif; text-anchor: middle" x="71.433071" y="92.296713" transform="rotate(-0 71.433071 92.296713)">Components</text>
    </g>
   </g>
   <g id="matplotlib.axis_2">
    <g id="ytick_1">
     <g id="line2d_6">
      <defs>
       <path id="m88cd6538eb" d="M 0 0 
L -2 0 
" style="stroke: #000000; stroke-width: 0.75"/>
      </defs>
      <g>
       <use xlink:href="#m88cd6538eb" x="35.283465" y="67.24316" style="stroke: #000000; stroke-width: 0.75"/>
      </g>
     </g>
     <g id="text_7">
      <text style="font-size: 7px; font-family: 'Arial', sans-serif; text-anchor: end" x="29.783465" y="69.748394" transform="rotate(-0 29.783465 69.748394)">0.1</text>
     </g>
    </g>
    <g id="ytick_2">
     <g id="line2d_7">
      <g>
       <use xlink:href="#m88cd6538eb" x="35.283465" y="45.63425" style="stroke: #000000; stroke-width: 0.75"/>
      </g>
     </g>
     <g id="text_8">
      <text style="font-size: 7px; font-family: 'Arial', sans-serif; text-anchor: end" x="29.783465" y="48.139484" transform="rotate(-0 29.783465 48.139484)">0.2</text>
     </g>
    </g>
    <g id="ytick_3">
     <g id="line2d_8">
      <g>
       <use xlink:href="#m88cd6538eb" x="35.283465" y="24.02534" style="stroke: #000000; stroke-width: 0.75"/>
      </g>
     </g>
     <g id="text_9">
      <text style="font-size: 7px; font-family: 'Arial', sans-serif; text-anchor: end" x="29.783465" y="26.530574" transform="rotate(-0 29.783465 26.530574)">0.3</text>
     </g>
    </g>
    <g id="text_10">
     <text style="font-size: 7px; font-family: 'Arial', sans-serif; text-anchor: middle" x="14.662215" y="41.952756" transform="rotate(-90 14.662215 41.952756)">Cosine sil.</text>
    </g>
   </g>
   <g id="line2d_9">
    <path d="M 39.478883 16.18325 
L 55.455977 19.998298 
L 71.433071 55.659603 
L 87.410165 64.760489 
L 103.387258 67.722262 
" clip-path="url(#pd8afce0428)" style="fill: none; stroke: #333333; stroke-linecap: square"/>
    <defs>
     <path id="m0b85b9eefd" d="M 0 1.75 
C 0.464105 1.75 0.909265 1.565609 1.237437 1.237437 
C 1.565609 0.909265 1.75 0.464105 1.75 0 
C 1.75 -0.464105 1.565609 -0.909265 1.237437 -1.237437 
C 0.909265 -1.565609 0.464105 -1.75 0 -1.75 
C -0.464105 -1.75 -0.909265 -1.565609 -1.237437 -1.237437 
C -1.565609 -0.909265 -1.75 -0.464105 -1.75 0 
C -1.75 0.464105 -1.565609 0.909265 -1.237437 1.237437 
C -0.909265 1.565609 -0.464105 1.75 0 1.75 
z
" style="stroke: #333333"/>
    </defs>
    <g clip-path="url(#pd8afce0428)">
     <use xlink:href="#m0b85b9eefd" x="39.478883" y="16.18325" style="fill: #333333; stroke: #333333"/>
     <use xlink:href="#m0b85b9eefd" x="55.455977" y="19.998298" style="fill: #333333; stroke: #333333"/>
     <use xlink:href="#m0b85b9eefd" x="71.433071" y="55.659603" style="fill: #333333; stroke: #333333"/>
     <use xlink:href="#m0b85b9eefd" x="87.410165" y="64.760489" style="fill: #333333; stroke: #333333"/>
     <use xlink:href="#m0b85b9eefd" x="103.387258" y="67.722262" style="fill: #333333; stroke: #333333"/>
    </g>
   </g>
   <g id="line2d_10">
    <path d="M 55.455977 70.299213 
L 55.455977 13.606299 
" clip-path="url(#pd8afce0428)" style="fill: none; stroke-dasharray: 1.85,0.8; stroke-dashoffset: 0; stroke: #000000; stroke-width: 0.5"/>
   </g>
   <g id="patch_3">
    <path d="M 35.283465 67.24316 
L 35.283465 24.02534 
" style="fill: none; stroke: #000000; stroke-width: 0.75; stroke-linejoin: miter; stroke-linecap: square"/>
   </g>
   <g id="patch_4">
    <path d="M 39.478883 71.299213 
L 103.387258 71.299213 
" style="fill: none; stroke: #000000; stroke-width: 0.75; stroke-linejoin: miter; stroke-linecap: square"/>
   </g>
   <g id="PathCollection_1">
    <defs>
     <path id="mb0ae5d9bda" d="M 0 2.12132 
C 0.562581 2.12132 1.102195 1.897805 1.5 1.5 
C 1.897805 1.102195 2.12132 0.562581 2.12132 0 
C 2.12132 -0.562581 1.897805 -1.102195 1.5 -1.5 
C 1.102195 -1.897805 0.562581 -2.12132 0 -2.12132 
C -0.562581 -2.12132 -1.102195 -1.897805 -1.5 -1.5 
C -1.897805 -1.102195 -2.12132 -0.562581 -2.12132 0 
C -2.12132 0.562581 -1.897805 1.102195 -1.5 1.5 
C -1.102195 1.897805 -0.562581 2.12132 0 2.12132 
z
" style="stroke: #a9373b"/>
    </defs>
    <g clip-path="url(#pd8afce0428)">
     <use xlink:href="#mb0ae5d9bda" x="55.455977" y="19.998298" style="fill: #a9373b; stroke: #a9373b"/>
    </g>
   </g>
  </g>
 </g>
 <defs>
  <clipPath id="pd8afce0428">
   <rect x="36.283465" y="13.606299" width="70.299213" height="56.692913"/>
  </clipPath>
 </defs>
</svg>
