<?xml version="1.0" encoding="utf-8" standalone="no"?>
<!DOCTYPE svg PUBLIC "-//W3C//DTD SVG 1.1//EN"
  "http://www.w3.org/Graphics/SVG/1.1/DTD/svg11.dtd">
<svg xmlns:xlink="http://www.w3.org/1999/xlink" width="144.2346pt" height="173.285088pt" viewBox="0 0 144.2346 173.285088" xmlns="http://www.w3.org/2000/svg" version="1.1">
 <metadata>
  <rdf:RDF xmlns:dc="http://purl.org/dc/elements/1.1/" xmlns:cc="http://creativecommons.org/ns#" xmlns:rdf="http://www.w3.org/1999/02/22-rdf-syntax-ns#">
   <cc:Work>
    <dc:type rdf:resource="http://purl.org/dc/dcmitype/StillImage"/>
    <dc:date>2026-05-19T19:51:01.825133</dc:date>
    <dc:format>image/svg+xml</dc:format>
    <dc:creator>
     <cc:Agent>
      <dc:title>Matplotlib v3.10.1, https://matplotlib.org/</dc:title>
     </cc:Agent>
    </dc:creator>
   </cc:Work>
  </rdf:RDF>
 </metadata>
 <defs>
  <style type="text/css">*{stroke-linejoin: round; stroke-linecap: butt}</style>
 </defs>
 <g id="figure_1">
  <g id="patch_1">
   <path d="M 0 173.285088 
L 144.2346 173.285088 
L 144.2346 0 
L 0 0 
z
" style="fill: #ffffff"/>
  </g>
  <g id="axes_1">
   <g id="patch_2">
    <path d="M 31.585781 142.035713 
L 119.459797 142.035713 
L 119.459797 28.5365 
L 31.585781 28.5365 
z
" style="fill: #ffffff"/>
   </g>
   <g id="matplotlib.axis_1">
    <g id="xtick_1">
     <g id="text_1">
      <text style="font-size: 7px; font-family: 'Arial', 'DejaVu Sans', 'Liberation Sans', 'Bitstream Vera Sans', sans-serif; text-anchor: middle; fill: #262626" x="31.585781" y="153.854619" transform="rotate(-0 31.585781 153.854619)">−500</text>
     </g>
    </g>
    <g id="xtick_2">
     <g id="text_2">
      <text style="font-size: 7px; font-family: 'Arial', 'DejaVu Sans', 'Liberation Sans', 'Bitstream Vera Sans', sans-serif; text-anchor: middle; fill: #262626" x="53.554285" y="153.854619" transform="rotate(-0 53.554285 153.854619)">−250</text>
     </g>
    </g>
    <g id="xtick_3">
     <g id="text_3">
      <text style="font-size: 7px; font-family: 'Arial', 'DejaVu Sans', 'Liberation Sans', 'Bitstream Vera Sans', sans-serif; text-anchor: middle; fill: #262626" x="75.522789" y="153.854619" transform="rotate(-0 75.522789 153.854619)">0</text>
     </g>
    </g>
    <g id="xtick_4">
     <g id="text_4">
      <text style="font-size: 7px; font-family: 'Arial', 'DejaVu Sans', 'Liberation Sans', 'Bitstream Vera Sans', sans-serif; text-anchor: middle; fill: #262626" x="97.491293" y="153.854619" transform="rotate(-0 97.491293 153.854619)">250</text>
     </g>
    </g>
    <g id="xtick_5">
     <g id="text_5">
      <text style="font-size: 7px; font-family: 'Arial', 'DejaVu Sans', 'Liberation Sans', 'Bitstream Vera Sans', sans-serif; text-anchor: middle; fill: #262626" x="119.459797" y="153.854619" transform="rotate(-0 119.459797 153.854619)">500</text>
     </g>
    </g>
    <g id="text_6">
     <text style="font-size: 7px; font-family: 'Arial', 'DejaVu Sans', 'Liberation Sans', 'Bitstream Vera Sans', sans-serif; text-anchor: middle; fill: #262626" x="75.522789" y="164.629306" transform="rotate(-0 75.522789 164.629306)">Lag (ms)</text>
    </g>
   </g>
   <g id="matplotlib.axis_2">
    <g id="ytick_1">
     <g id="text_7">
      <text style="font-size: 7px; font-family: 'Arial', 'DejaVu Sans', 'Liberation Sans', 'Bitstream Vera Sans', sans-serif; text-anchor: end; fill: #262626" x="26.085781" y="135.236898" transform="rotate(-0 26.085781 135.236898)">SMC</text>
     </g>
    </g>
    <g id="ytick_2">
     <g id="text_8">
      <text style="font-size: 7px; font-family: 'Arial', 'DejaVu Sans', 'Liberation Sans', 'Bitstream Vera Sans', sans-serif; text-anchor: end; fill: #262626" x="26.085781" y="116.320363" transform="rotate(-0 26.085781 116.320363)">AIC</text>
     </g>
    </g>
    <g id="ytick_3">
     <g id="text_9">
      <text style="font-size: 7px; font-family: 'Arial', 'DejaVu Sans', 'Liberation Sans', 'Bitstream Vera Sans', sans-serif; text-anchor: end; fill: #262626" x="26.085781" y="97.403827" transform="rotate(-0 26.085781 97.403827)">IFG</text>
     </g>
    </g>
    <g id="ytick_4">
     <g id="text_10">
      <text style="font-size: 7px; font-family: 'Arial', 'DejaVu Sans', 'Liberation Sans', 'Bitstream Vera Sans', sans-serif; text-anchor: end; fill: #262626" x="26.085781" y="78.487292" transform="rotate(-0 26.085781 78.487292)">OFC</text>
     </g>
    </g>
    <g id="ytick_5">
     <g id="text_11">
      <text style="font-size: 7px; font-family: 'Arial', 'DejaVu Sans', 'Liberation Sans', 'Bitstream Vera Sans', sans-serif; text-anchor: end; fill: #262626" x="26.085781" y="59.570756" transform="rotate(-0 26.085781 59.570756)">dACC</text>
     </g>
    </g>
    <g id="ytick_6">
     <g id="text_12">
      <text style="font-size: 7px; font-family: 'Arial', 'DejaVu Sans', 'Liberation Sans', 'Bitstream Vera Sans', sans-serif; text-anchor: end; fill: #262626" x="26.085781" y="40.654221" transform="rotate(-0 26.085781 40.654221)">STS</text>
     </g>
    </g>
   </g>
   <g id="LineCollection_1">
    <path d="M 69.344147 116.49839 
L 69.344147 110.823429 
" clip-path="url(#p37289455b6)" style="fill: none; stroke: #2ca02c; stroke-opacity: 0.7; stroke-width: 1.2"/>
   </g>
   <g id="LineCollection_2">
    <path d="M 71.403695 116.49839 
L 71.403695 110.823429 
" clip-path="url(#p37289455b6)" style="fill: none; stroke: #8c564b; stroke-opacity: 0.7; stroke-width: 1.2"/>
   </g>
   <g id="LineCollection_3">
    <path d="M 100.923872 116.49839 
L 100.923872 110.823429 
" clip-path="url(#p37289455b6)" style="fill: none; stroke: #bcbd22; stroke-opacity: 0.7; stroke-width: 1.2"/>
   </g>
   <g id="LineCollection_4">
    <path d="M 73.463242 116.49839 
L 73.463242 110.823429 
" clip-path="url(#p37289455b6)" style="fill: none; stroke: #bcbd22; stroke-opacity: 0.7; stroke-width: 1.2"/>
   </g>
   <g id="LineCollection_5">
    <path d="M 43.943065 116.49839 
L 43.943065 110.823429 
" clip-path="url(#p37289455b6)" style="fill: none; stroke: #bcbd22; stroke-opacity: 0.7; stroke-width: 1.2"/>
   </g>
   <g id="LineCollection_6">
    <path d="M 58.359895 116.49839 
L 58.359895 110.823429 
" clip-path="url(#p37289455b6)" style="fill: none; stroke: #bcbd22; stroke-opacity: 0.7; stroke-width: 1.2"/>
   </g>
   <g id="LineCollection_7">
    <path d="M 70.030663 97.581854 
L 70.030663 91.906894 
" clip-path="url(#p37289455b6)" style="fill: none; stroke: #1f77b4; stroke-opacity: 0.7; stroke-width: 1.2"/>
   </g>
   <g id="LineCollection_8">
    <path d="M 74.149758 97.581854 
L 74.149758 91.906894 
" clip-path="url(#p37289455b6)" style="fill: none; stroke: #1f77b4; stroke-opacity: 0.7; stroke-width: 1.2"/>
   </g>
   <g id="LineCollection_9">
    <path d="M 70.717179 97.581854 
L 70.717179 91.906894 
" clip-path="url(#p37289455b6)" style="fill: none; stroke: #1f77b4; stroke-opacity: 0.7; stroke-width: 1.2"/>
   </g>
   <g id="LineCollection_10">
    <path d="M 54.927317 97.581854 
L 54.927317 91.906894 
" clip-path="url(#p37289455b6)" style="fill: none; stroke: #9467bd; stroke-opacity: 0.7; stroke-width: 1.2"/>
   </g>
   <g id="LineCollection_11">
    <path d="M 76.895821 97.581854 
L 76.895821 91.906894 
" clip-path="url(#p37289455b6)" style="fill: none; stroke: #17becf; stroke-opacity: 0.7; stroke-width: 1.2"/>
   </g>
   <g id="LineCollection_12">
    <path d="M 74.836273 78.665319 
L 74.836273 72.990358 
" clip-path="url(#p37289455b6)" style="fill: none; stroke: #1f77b4; stroke-opacity: 0.7; stroke-width: 1.2"/>
   </g>
   <g id="LineCollection_13">
    <path d="M 89.253104 78.665319 
L 89.253104 72.990358 
" clip-path="url(#p37289455b6)" style="fill: none; stroke: #1f77b4; stroke-opacity: 0.7; stroke-width: 1.2"/>
   </g>
   <g id="LineCollection_14">
    <path d="M 85.820525 78.665319 
L 85.820525 72.990358 
" clip-path="url(#p37289455b6)" style="fill: none; stroke: #1f77b4; stroke-opacity: 0.7; stroke-width: 1.2"/>
   </g>
   <g id="LineCollection_15">
    <path d="M 68.657632 78.665319 
L 68.657632 72.990358 
" clip-path="url(#p37289455b6)" style="fill: none; stroke: #1f77b4; stroke-opacity: 0.7; stroke-width: 1.2"/>
   </g>
   <g id="LineCollection_16">
    <path d="M 71.403695 78.665319 
L 71.403695 72.990358 
" clip-path="url(#p37289455b6)" style="fill: none; stroke: #ff7f0e; stroke-opacity: 0.7; stroke-width: 1.2"/>
   </g>
   <g id="LineCollection_17">
    <path d="M 70.030663 78.665319 
L 70.030663 72.990358 
" clip-path="url(#p37289455b6)" style="fill: none; stroke: #ff7f0e; stroke-opacity: 0.7; stroke-width: 1.2"/>
   </g>
   <g id="LineCollection_18">
    <path d="M 68.657632 78.665319 
L 68.657632 72.990358 
" clip-path="url(#p37289455b6)" style="fill: none; stroke: #d62728; stroke-opacity: 0.7; stroke-width: 1.2"/>
   </g>
   <g id="LineCollection_19">
    <path d="M 70.717179 78.665319 
L 70.717179 72.990358 
" clip-path="url(#p37289455b6)" style="fill: none; stroke: #7f7f7f; stroke-opacity: 0.7; stroke-width: 1.2"/>
   </g>
   <g id="LineCollection_20">
    <path d="M 100.237356 135.414925 
L 100.237356 129.739965 
" clip-path="url(#p37289455b6)" style="fill: none; stroke: #ff7f0e; stroke-opacity: 0.7; stroke-width: 1.2"/>
   </g>
   <g id="LineCollection_21">
    <path d="M 56.986864 135.414925 
L 56.986864 129.739965 
" clip-path="url(#p37289455b6)" style="fill: none; stroke: #d62728; stroke-opacity: 0.7; stroke-width: 1.2"/>
   </g>
   <g id="LineCollection_22">
    <path d="M 76.895821 135.414925 
L 76.895821 129.739965 
" clip-path="url(#p37289455b6)" style="fill: none; stroke: #9467bd; stroke-opacity: 0.7; stroke-width: 1.2"/>
   </g>
   <g id="LineCollection_23">
    <path d="M 52.867769 135.414925 
L 52.867769 129.739965 
" clip-path="url(#p37289455b6)" style="fill: none; stroke: #8c564b; stroke-opacity: 0.7; stroke-width: 1.2"/>
   </g>
   <g id="LineCollection_24">
    <path d="M 67.971116 135.414925 
L 67.971116 129.739965 
" clip-path="url(#p37289455b6)" style="fill: none; stroke: #bcbd22; stroke-opacity: 0.7; stroke-width: 1.2"/>
   </g>
   <g id="LineCollection_25">
    <path d="M 78.268852 135.414925 
L 78.268852 129.739965 
" clip-path="url(#p37289455b6)" style="fill: none; stroke: #bcbd22; stroke-opacity: 0.7; stroke-width: 1.2"/>
   </g>
   <g id="LineCollection_26">
    <path d="M 66.598084 135.414925 
L 66.598084 129.739965 
" clip-path="url(#p37289455b6)" style="fill: none; stroke: #bcbd22; stroke-opacity: 0.7; stroke-width: 1.2"/>
   </g>
   <g id="LineCollection_27">
    <path d="M 73.463242 135.414925 
L 73.463242 129.739965 
" clip-path="url(#p37289455b6)" style="fill: none; stroke: #bcbd22; stroke-opacity: 0.7; stroke-width: 1.2"/>
   </g>
   <g id="LineCollection_28">
    <path d="M 74.149758 135.414925 
L 74.149758 129.739965 
" clip-path="url(#p37289455b6)" style="fill: none; stroke: #bcbd22; stroke-opacity: 0.7; stroke-width: 1.2"/>
   </g>
   <g id="LineCollection_29">
    <path d="M 70.030663 135.414925 
L 70.030663 129.739965 
" clip-path="url(#p37289455b6)" style="fill: none; stroke: #bcbd22; stroke-opacity: 0.7; stroke-width: 1.2"/>
   </g>
   <g id="LineCollection_30">
    <path d="M 65.911569 135.414925 
L 65.911569 129.739965 
" clip-path="url(#p37289455b6)" style="fill: none; stroke: #17becf; stroke-opacity: 0.7; stroke-width: 1.2"/>
   </g>
   <g id="LineCollection_31">
    <path d="M 66.598084 40.832248 
L 66.598084 35.157287 
" clip-path="url(#p37289455b6)" style="fill: none; stroke: #1f77b4; stroke-opacity: 0.7; stroke-width: 1.2"/>
   </g>
   <g id="LineCollection_32">
    <path d="M 74.149758 40.832248 
L 74.149758 35.157287 
" clip-path="url(#p37289455b6)" style="fill: none; stroke: #ff7f0e; stroke-opacity: 0.7; stroke-width: 1.2"/>
   </g>
   <g id="LineCollection_33">
    <path d="M 89.93962 40.832248 
L 89.93962 35.157287 
" clip-path="url(#p37289455b6)" style="fill: none; stroke: #8c564b; stroke-opacity: 0.7; stroke-width: 1.2"/>
   </g>
   <g id="LineCollection_34">
    <path d="M 71.746953 40.832248 
L 71.746953 35.157287 
" clip-path="url(#p37289455b6)" style="fill: none; stroke: #e377c2; stroke-opacity: 0.7; stroke-width: 1.2"/>
   </g>
   <g id="LineCollection_35">
    <path d="M 71.403695 59.748783 
L 71.403695 54.073823 
" clip-path="url(#p37289455b6)" style="fill: none; stroke: #1f77b4; stroke-opacity: 0.7; stroke-width: 1.2"/>
   </g>
   <g id="LineCollection_36">
    <path d="M 73.463242 59.748783 
L 73.463242 54.073823 
" clip-path="url(#p37289455b6)" style="fill: none; stroke: #1f77b4; stroke-opacity: 0.7; stroke-width: 1.2"/>
   </g>
   <g id="LineCollection_37">
    <path d="M 54.927317 59.748783 
L 54.927317 54.073823 
" clip-path="url(#p37289455b6)" style="fill: none; stroke: #d62728; stroke-opacity: 0.7; stroke-width: 1.2"/>
   </g>
   <g id="LineCollection_38">
    <path d="M 85.820525 59.748783 
L 85.820525 54.073823 
" clip-path="url(#p37289455b6)" style="fill: none; stroke: #17becf; stroke-opacity: 0.7; stroke-width: 1.2"/>
   </g>
   <g id="line2d_1">
    <path d="M 75.522789 142.035713 
L 75.522789 28.5365 
" clip-path="url(#p37289455b6)" style="fill: none; stroke-dasharray: 3.7,1.6; stroke-dashoffset: 0; stroke: #1a1a1a; stroke-opacity: 0.6"/>
   </g>
   <g id="patch_3">
    <path d="M 31.585781 143.035713 
L 119.459797 143.035713 
" style="fill: none; stroke: #262626; stroke-width: 0.75; stroke-linejoin: miter; stroke-linecap: square"/>
   </g>
   <g id="text_13">
    <text style="font-size: 7px; font-family: 'Arial', 'DejaVu Sans', 'Liberation Sans', 'Bitstream Vera Sans', sans-serif; text-anchor: end; fill: #666666" x="137.0346" y="134.509007" transform="rotate(-0 137.0346 134.509007)">n=11</text>
   </g>
   <g id="text_14">
    <text style="font-size: 7px; font-family: 'Arial', 'DejaVu Sans', 'Liberation Sans', 'Bitstream Vera Sans', sans-serif; text-anchor: end; fill: #666666" x="137.0346" y="115.592472" transform="rotate(-0 137.0346 115.592472)">n=6</text>
   </g>
   <g id="text_15">
    <text style="font-size: 7px; font-family: 'Arial', 'DejaVu Sans', 'Liberation Sans', 'Bitstream Vera Sans', sans-serif; text-anchor: end; fill: #666666" x="137.0346" y="96.675937" transform="rotate(-0 137.0346 96.675937)">n=5</text>
   </g>
   <g id="text_16">
    <text style="font-size: 7px; font-family: 'Arial', 'DejaVu Sans', 'Liberation Sans', 'Bitstream Vera Sans', sans-serif; text-anchor: end; fill: #666666" x="137.0346" y="77.759401" transform="rotate(-0 137.0346 77.759401)">n=8</text>
   </g>
   <g id="text_17">
    <text style="font-size: 7px; font-family: 'Arial', 'DejaVu Sans', 'Liberation Sans', 'Bitstream Vera Sans', sans-serif; text-anchor: end; fill: #666666" x="137.0346" y="58.842866" transform="rotate(-0 137.0346 58.842866)">n=4</text>
   </g>
   <g id="text_18">
    <text style="font-size: 7px; font-family: 'Arial', 'DejaVu Sans', 'Liberation Sans', 'Bitstream Vera Sans', sans-serif; text-anchor: end; fill: #666666" x="137.0346" y="39.92633" transform="rotate(-0 137.0346 39.92633)">n=4</text>
   </g>
   <g id="text_19">
    <text style="font-weight: 700; font-size: 8px; font-family: 'Arial', 'DejaVu Sans', 'Liberation Sans', 'Bitstream Vera Sans', sans-serif; fill: #262626" transform="translate(48.022789 13.31375)">SFG lag | Go</text>
    <text style="font-weight: 700; font-size: 8px; font-family: 'Arial', 'DejaVu Sans', 'Liberation Sans', 'Bitstream Vera Sans', sans-serif; fill: #262626" transform="translate(19.868414 22.5365)">← SFG leads | SFG lags →</text>
   </g>
   <g id="PathCollection_1">
    <path d="M 68.88647 115.242048 
C 69.305793 115.242048 69.707998 115.07545 70.004504 114.778943 
C 70.30101 114.482437 70.467609 114.080232 70.467609 113.660909 
C 70.467609 113.241587 70.30101 112.839382 70.004504 112.542875 
C 69.707998 112.246369 69.305793 112.079771 68.88647 112.079771 
C 68.467147 112.079771 68.064942 112.246369 67.768436 112.542875 
C 67.47193 112.839382 67.305331 113.241587 67.305331 113.660909 
C 67.305331 114.080232 67.47193 114.482437 67.768436 114.778943 
C 68.064942 115.07545 68.467147 115.242048 68.88647 115.242048 
L 68.88647 115.242048 
z
" clip-path="url(#p37289455b6)" style="fill: none; stroke: #000000"/>
   </g>
   <g id="PathCollection_2">
    <path d="M 67.513439 96.325513 
C 67.932762 96.325513 68.334967 96.158914 68.631473 95.862408 
C 68.927979 95.565902 69.094578 95.163697 69.094578 94.744374 
C 69.094578 94.325051 68.927979 93.922846 68.631473 93.62634 
C 68.334967 93.329834 67.932762 93.163235 67.513439 93.163235 
C 67.094116 93.163235 66.691911 93.329834 66.395405 93.62634 
C 66.098899 93.922846 65.9323 94.325051 65.9323 94.744374 
C 65.9323 95.163697 66.098899 95.565902 66.395405 95.862408 
C 66.691911 96.158914 67.094116 96.325513 67.513439 96.325513 
L 67.513439 96.325513 
z
" clip-path="url(#p37289455b6)" style="fill: none; stroke: #000000"/>
   </g>
   <g id="PathCollection_3">
    <path d="M 72.605097 77.408977 
C 73.02442 77.408977 73.426625 77.242379 73.723131 76.945873 
C 74.019637 76.649366 74.186236 76.247162 74.186236 75.827839 
C 74.186236 75.408516 74.019637 75.006311 73.723131 74.709805 
C 73.426625 74.413299 73.02442 74.2467 72.605097 74.2467 
C 72.185774 74.2467 71.783569 74.413299 71.487063 74.709805 
C 71.190557 75.006311 71.023958 75.408516 71.023958 75.827839 
C 71.023958 76.247162 71.190557 76.649366 71.487063 76.945873 
C 71.783569 77.242379 72.185774 77.408977 72.605097 77.408977 
L 72.605097 77.408977 
z
" clip-path="url(#p37289455b6)" style="fill: none; stroke: #000000"/>
   </g>
   <g id="PathCollection_4">
    <path d="M 70.774389 134.158584 
C 71.193711 134.158584 71.595916 133.991985 71.892423 133.695479 
C 72.188929 133.398973 72.355527 132.996768 72.355527 132.577445 
C 72.355527 132.158122 72.188929 131.755917 71.892423 131.459411 
C 71.595916 131.162905 71.193711 130.996306 70.774389 130.996306 
C 70.355066 130.996306 69.952861 131.162905 69.656355 131.459411 
C 69.359848 131.755917 69.19325 132.158122 69.19325 132.577445 
C 69.19325 132.996768 69.359848 133.398973 69.656355 133.695479 
C 69.952861 133.991985 70.355066 134.158584 70.774389 134.158584 
L 70.774389 134.158584 
z
" clip-path="url(#p37289455b6)" style="fill: none; stroke: #000000"/>
   </g>
   <g id="PathCollection_5">
    <path d="M 75.608604 39.575907 
C 76.027927 39.575907 76.430132 39.409308 76.726638 39.112802 
C 77.023144 38.816296 77.189742 38.414091 77.189742 37.994768 
C 77.189742 37.575445 77.023144 37.17324 76.726638 36.876734 
C 76.430132 36.580228 76.027927 36.413629 75.608604 36.413629 
C 75.189281 36.413629 74.787076 36.580228 74.49057 36.876734 
C 74.194064 37.17324 74.027465 37.575445 74.027465 37.994768 
C 74.027465 38.414091 74.194064 38.816296 74.49057 39.112802 
C 74.787076 39.409308 75.189281 39.575907 75.608604 39.575907 
L 75.608604 39.575907 
z
" clip-path="url(#p37289455b6)" style="fill: none; stroke: #000000"/>
   </g>
   <g id="PathCollection_6">
    <path d="M 71.060437 58.492442 
C 71.47976 58.492442 71.881965 58.325843 72.178471 58.029337 
C 72.474977 57.732831 72.641576 57.330626 72.641576 56.911303 
C 72.641576 56.49198 72.474977 56.089775 72.178471 55.793269 
C 71.881965 55.496763 71.47976 55.330164 71.060437 55.330164 
C 70.641114 55.330164 70.238909 55.496763 69.942403 55.793269 
C 69.645897 56.089775 69.479298 56.49198 69.479298 56.911303 
C 69.479298 57.330626 69.645897 57.732831 69.942403 58.029337 
C 70.238909 58.325843 70.641114 58.492442 71.060437 58.492442 
L 71.060437 58.492442 
z
" clip-path="url(#p37289455b6)" style="fill: none; stroke: #000000"/>
   </g>
  </g>
 </g>
 <defs>
  <clipPath id="p37289455b6">
   <rect x="31.585781" y="28.5365" width="87.874016" height="113.499213"/>
  </clipPath>
 </defs>
</svg>
